<svg xmlns="http://www.w3.org/2000/svg" width="491" height="392" viewBox="0 0 491 392">
<g>
<path d="M 201.00 238.57 C188.61,240.24 179.63,240.21 168.00,238.49 C157.33,236.90 152.90,235.40 148.77,231.95 L 145.50 229.22 L 145.63 218.86 C145.80,204.95 146.04,202.10 147.10,201.44 C147.59,201.13 148.00,198.66 148.00,195.94 C148.00,191.15 148.09,191.00 150.92,191.00 C155.20,191.00 156.90,190.09 158.54,186.93 C160.30,183.51 160.42,179.82 158.82,178.22 C158.18,177.58 157.33,174.90 156.94,172.27 C156.55,169.65 155.89,165.35 155.47,162.72 C154.88,158.95 155.11,157.22 156.56,154.52 C158.04,151.78 158.17,150.66 157.27,148.80 C156.64,147.54 155.94,142.97 155.71,138.66 C155.31,131.26 155.42,130.77 157.59,129.78 C159.65,128.84 163.00,122.70 163.00,119.88 C163.00,119.29 162.30,117.33 161.45,115.53 C159.96,112.40 160.00,112.08 162.37,108.60 C166.12,103.06 168.36,92.70 166.62,88.88 C166.10,87.73 166.48,87.11 167.94,86.73 C170.49,86.06 170.75,80.74 168.50,75.35 C166.24,69.95 166.57,68.85 172.00,63.50 C175.11,60.44 177.00,57.71 177.00,56.29 C177.00,53.62 177.82,53.37 179.42,55.56 C180.22,56.65 182.49,57.18 186.99,57.31 C193.40,57.50 193.44,57.48 195.88,53.75 C198.25,50.12 198.53,50.00 204.19,50.00 L 210.04 50.00 L 222.53 61.84 C229.41,68.35 236.62,75.53 238.56,77.80 C241.89,81.69 242.07,82.27 241.79,88.21 C241.50,94.41 241.54,94.50 244.25,94.82 C247.47,95.19 255.91,88.65 255.97,85.75 C256.06,80.85 262.65,85.85 268.71,95.41 C273.98,103.71 276.63,106.12 279.70,105.35 C281.27,104.97 282.86,105.70 285.20,107.90 C287.06,109.64 290.03,111.23 292.00,111.53 C297.62,112.40 300.19,114.20 302.68,119.00 C305.46,124.38 314.65,133.00 317.60,133.00 C320.65,133.00 324.93,135.41 329.56,139.72 C332.54,142.50 334.10,145.09 335.44,149.50 C337.97,157.84 340.74,161.09 348.99,165.43 C357.30,169.79 358.38,171.47 354.76,174.41 C348.66,179.38 313.30,201.00 311.28,201.00 C310.52,201.00 310.00,199.77 310.00,198.00 L 310.00 195.00 L 177.89 195.00 L 178.50 204.50 L 303.28 205.50 L 285.50 214.01 L 177.89 214.00 L 178.50 223.50 L 218.00 224.00 C239.73,224.27 257.05,224.79 256.50,225.14 C254.21,226.62 231.34,233.02 219.50,235.49 C215.10,236.41 206.77,237.80 201.00,238.57 ZM 301.50 271.70 C297.10,274.01 291.40,276.78 288.83,277.86 C284.17,279.82 284.15,279.82 282.34,277.82 C280.88,276.21 279.77,275.94 276.61,276.45 C273.30,276.98 272.28,276.68 270.08,274.57 C267.80,272.39 266.26,271.99 257.98,271.44 C248.52,270.81 248.49,270.81 243.73,274.01 C241.11,275.77 237.96,277.21 236.73,277.20 C230.08,277.16 225.76,275.07 226.24,272.12 C226.41,271.04 225.66,270.41 224.00,270.24 C216.20,269.42 209.30,266.43 203.45,261.35 C200.12,258.46 196.11,255.61 194.54,255.01 C191.09,253.70 178.92,253.86 173.75,255.28 C170.60,256.15 169.69,256.03 168.00,254.50 C166.90,253.51 166.00,252.03 166.00,251.23 C166.00,250.01 167.38,249.87 174.25,250.42 C191.71,251.81 220.78,247.73 244.71,240.52 C258.57,236.34 278.10,229.07 284.90,225.55 C287.08,224.42 290.92,224.00 298.95,224.00 L 310.00 224.00 L 310.05 212.50 L 319.16 206.56 C324.18,203.29 330.87,198.46 334.04,195.81 C337.20,193.16 340.06,191.00 340.40,191.00 C340.73,191.00 341.00,196.81 341.00,203.92 C341.00,216.71 341.02,216.85 343.63,218.75 C346.13,220.57 346.18,220.79 344.70,223.08 C343.84,224.41 342.58,227.70 341.91,230.39 C341.11,233.62 339.24,236.92 336.40,240.12 C333.91,242.92 331.83,246.41 331.45,248.41 C330.96,251.01 329.78,252.53 326.65,254.57 C324.37,256.06 320.61,259.28 318.30,261.73 C314.09,266.18 312.00,266.58 312.00,262.94 C312.00,261.87 311.55,261.00 311.00,261.00 C310.01,261.00 309.80,261.67 309.60,265.50 C309.53,266.94 307.27,268.67 301.50,271.70 ZM 178.00 136.00 L 178.00 185.00 L 310.00 185.00 L 310.00 175.02 L 227.50 174.50 L 227.19 170.26 L 226.89 166.02 L 268.19 165.76 L 309.50 165.50 L 309.80 160.38 C310.09,155.36 310.04,155.26 306.92,154.63 C305.18,154.29 286.48,154.00 265.38,154.00 L 227.00 154.00 L 227.00 146.00 L 310.00 146.00 L 310.00 136.00 ZM 30.60 342.15 C22.43,348.12 9.83,344.49 5.14,334.80 C-1.02,322.07 7.21,309.00 21.39,309.00 C27.92,309.00 31.65,310.61 35.35,315.01 C39.33,319.73 40.63,325.19 39.12,330.82 C37.73,336.04 36.24,338.02 30.60,342.15 ZM 237.80 338.75 L 237.50 344.50 L 233.74 344.81 C231.28,345.01 229.81,344.66 229.47,343.77 C229.18,343.03 229.07,335.02 229.22,325.96 L 229.50 309.50 L 239.50 309.24 C248.07,309.01 249.97,309.26 252.77,310.99 C258.83,314.71 259.87,322.80 255.00,328.35 C253.35,330.23 252.00,332.04 252.00,332.37 C252.00,332.70 253.35,335.16 255.00,337.85 C256.65,340.53 258.00,343.23 258.00,343.86 C258.00,344.54 256.22,345.00 253.57,345.00 C249.23,345.00 249.07,344.88 245.50,339.00 C240.56,330.87 238.21,330.80 237.80,338.75 ZM 106.75 338.00 C106.50,344.45 106.47,344.50 103.46,344.80 C101.79,344.96 100.11,344.77 99.71,344.38 C99.32,343.99 99.00,335.87 99.00,326.33 L 99.00 309.00 L 109.79 309.00 L 115.50 319.00 C118.64,324.49 121.61,328.74 122.10,328.44 C122.60,328.13 123.00,323.63 123.00,318.44 L 123.00 309.00 L 131.05 309.00 L 130.50 344.50 L 125.81 344.80 L 121.13 345.10 L 115.53 335.59 C112.45,330.35 109.52,325.82 109.01,325.51 C107.90,324.82 107.07,329.36 106.75,338.00 ZM 342.60 343.96 C334.20,347.16 323.61,342.88 319.28,334.55 C316.17,328.58 317.89,318.05 322.65,313.87 C329.34,307.99 340.75,307.29 347.38,312.34 C351.81,315.72 351.94,317.46 347.91,319.55 C345.07,321.01 344.67,321.01 343.03,319.53 C340.34,317.09 334.81,316.53 331.30,318.35 C325.51,321.34 324.62,328.71 329.45,333.55 C332.44,336.54 335.81,337.40 339.29,336.08 C342.69,334.79 342.81,333.00 339.50,333.00 C337.31,333.00 337.00,332.57 337.00,329.50 L 337.00 326.00 L 345.75 326.00 L 354.50 326.00 L 354.18 335.50 L 353.86 345.00 L 350.63 345.00 C348.85,345.00 346.93,344.53 346.36,343.96 C345.65,343.25 344.48,343.25 342.60,343.96 ZM 423.36 341.25 C422.53,344.18 422.02,344.53 418.22,344.81 C414.69,345.06 414.01,344.82 414.05,343.31 C414.08,342.31 416.92,334.30 420.36,325.50 L 426.62 309.50 L 436.50 309.50 L 442.70 325.50 C446.11,334.30 448.92,342.31 448.95,343.31 C448.99,344.82 448.31,345.06 444.78,344.81 C440.98,344.53 440.47,344.18 439.64,341.25 L 438.71 338.00 L 424.29 338.00 ZM 296.08 342.73 C290.19,346.69 282.03,345.27 276.79,339.36 C273.20,335.31 272.00,330.35 272.00,319.53 L 272.00 309.00 L 281.00 309.00 L 281.00 320.55 C281.00,331.47 281.13,332.22 283.45,334.55 C286.40,337.49 289.93,337.69 293.14,335.09 C295.35,333.31 295.52,332.39 295.83,321.09 L 296.17 309.00 L 304.00 309.00 L 304.00 321.35 C304.00,332.54 303.79,334.02 301.73,337.08 C300.48,338.93 297.93,341.48 296.08,342.73 ZM 389.80 343.59 C383.57,346.84 375.56,344.38 370.59,337.68 C368.77,335.23 368.46,333.17 368.17,321.93 L 367.84 309.00 L 376.00 309.00 L 376.00 320.08 C376.00,330.99 376.04,331.20 378.92,334.08 C382.38,337.53 384.78,337.75 388.37,334.93 C390.95,332.90 391.00,332.62 391.00,320.93 L 391.00 309.00 L 400.00 309.00 L 400.00 319.26 C400.00,324.90 399.56,331.05 399.02,332.93 C397.92,336.77 393.85,341.47 389.80,343.59 ZM 208.01 342.75 C204.40,345.21 197.93,345.73 194.50,343.84 C190.86,341.83 186.86,337.55 185.42,334.13 C184.49,331.92 184.00,327.02 184.00,319.88 L 184.00 309.00 L 193.00 309.00 L 193.00 320.93 C193.00,332.62 193.05,332.90 195.63,334.93 C199.91,338.29 204.18,337.30 206.84,332.32 C207.51,331.05 208.00,325.68 208.00,319.57 L 208.00 309.00 L 216.16 309.00 L 215.83 321.93 C215.47,336.23 214.73,338.17 208.01,342.75 ZM 71.74 343.75 C70.39,345.47 63.08,345.37 62.41,343.63 C62.12,342.87 59.01,334.89 55.51,325.88 L 49.13 309.50 L 52.67 309.18 C54.62,309.01 56.77,309.08 57.45,309.34 C58.13,309.60 60.16,313.89 61.95,318.86 C64.55,326.07 65.79,329.59 67.06,329.60 C68.25,329.61 69.48,326.56 71.87,320.58 L 72.06 320.11 L 76.50 309.02 L 80.75 309.01 C83.09,309.01 85.00,309.34 85.00,309.75 C85.00,310.17 83.18,315.23 80.95,321.00 C78.72,326.78 75.96,333.98 74.81,337.00 C73.67,340.02 72.29,343.06 71.74,343.75 ZM 475.00 337.50 C474.50,344.44 474.47,344.50 471.46,344.80 C469.79,344.96 468.11,344.77 467.71,344.38 C467.32,343.99 467.00,340.68 467.00,337.03 C467.00,330.71 466.71,329.90 461.00,320.24 C457.70,314.66 455.00,309.85 455.00,309.55 C455.00,309.25 456.78,309.00 458.96,309.00 C462.78,309.00 463.06,309.24 466.71,315.48 C468.79,319.04 470.92,321.83 471.43,321.67 C471.94,321.51 473.98,318.71 475.95,315.44 C479.35,309.80 479.76,309.48 483.87,309.19 C486.25,309.02 487.99,309.24 487.74,309.69 C487.48,310.13 484.63,315.00 481.39,320.50 C476.07,329.53 475.45,331.18 475.00,337.50 ZM 153.05 309.00 L 152.50 344.50 L 148.96 344.80 C147.02,344.96 145.11,344.77 144.71,344.38 C144.32,343.99 144.00,335.87 144.00,326.33 L 144.00 309.00 ZM 17.50 335.84 C21.06,337.79 24.07,337.13 27.60,333.60 C32.13,329.07 32.30,324.15 28.08,319.92 C22.02,313.87 11.98,317.88 12.02,326.34 C12.05,330.64 13.90,333.86 17.50,335.84 ZM 276.88 73.48 C275.74,75.42 274.70,77.00 274.57,77.00 C274.44,77.00 273.25,75.32 271.92,73.27 C270.59,71.22 268.05,68.63 266.29,67.52 C262.91,65.40 262.12,64.00 264.30,64.00 C265.73,64.00 272.16,57.60 273.76,54.58 C274.70,52.80 274.89,52.88 276.36,55.73 C277.23,57.42 279.78,60.36 282.01,62.28 L 286.08 65.76 L 282.52 67.86 C280.56,69.01 278.02,71.54 276.88,73.48 ZM 238.67 325.33 C239.91,326.58 245.55,326.01 247.83,324.40 C249.43,323.29 250.02,322.01 249.81,320.15 C249.52,317.67 249.14,317.48 243.75,317.20 L 238.00 316.90 L 238.00 320.78 C238.00,322.92 238.30,324.97 238.67,325.33 ZM 311.04 93.96 C309.25,95.63 307.72,96.93 307.64,96.85 C307.56,96.77 306.15,95.35 304.50,93.70 L 301.50 90.69 L 304.88 87.31 C306.74,85.45 308.32,84.06 308.38,84.22 C308.45,84.38 309.80,85.95 311.40,87.71 L 314.30 90.92 ZM 318.05 56.60 L 322.45 61.01 L 319.97 63.46 L 317.50 65.92 L 313.07 61.29 L 315.56 58.95 ZM 428.57 330.11 C429.38,331.42 432.60,331.20 433.74,329.75 C434.66,328.58 432.77,322.00 431.51,322.00 C430.62,322.00 428.01,329.20 428.57,330.11 Z" fill="rgb(5,57,164)"/>
<path d="M 310.00 137.59 L 310.00 146.00 L 227.00 146.00 L 227.00 154.00 L 265.38 154.00 C286.48,154.00 305.18,154.29 306.92,154.63 C309.82,155.21 310.07,155.34 309.85,159.37 C309.79,158.16 309.59,157.19 309.29,156.89 C308.82,156.42 290.38,156.01 268.31,155.98 C266.58,155.98 264.92,155.97 263.33,155.97 C234.29,155.93 227.59,155.92 226.29,153.27 C225.90,152.47 225.99,151.44 226.12,150.09 C226.14,149.84 226.16,149.59 226.19,149.32 L 226.50 145.50 L 309.50 144.50 L 309.81 140.25 Z" fill="rgb(114,141,196)"/>
<path d="M 201.00 238.57 C206.77,237.80 215.10,236.41 219.50,235.49 C231.34,233.02 254.21,226.62 256.50,225.14 C257.05,224.79 239.73,224.27 218.00,224.00 L 218.37 224.00 L 218.56 224.00 C255.02,224.00 258.25,223.86 264.29,221.99 C270.89,219.95 282.00,215.21 282.00,214.43 C282.00,214.21 262.62,214.03 237.58,214.00 L 285.50 214.01 L 303.28 205.50 L 240.89 205.00 L 241.27 205.00 C296.19,205.00 303.58,204.82 306.60,203.39 C309.48,202.02 310.00,201.25 310.00,198.39 L 310.00 198.00 C310.00,199.77 310.52,201.00 311.28,201.00 C313.30,201.00 348.66,179.38 354.76,174.41 C354.94,174.26 355.11,174.12 355.26,173.98 C353.35,177.09 349.69,181.70 345.44,186.18 L 341.00 190.86 L 341.00 203.84 C341.00,196.77 340.73,191.00 340.40,191.00 C340.06,191.00 337.20,193.16 334.04,195.81 C330.87,198.46 324.18,203.29 319.16,206.56 L 310.05 212.50 L 310.00 224.00 L 310.00 219.00 C310.00,215.28 309.63,214.00 308.54,214.00 C306.54,214.00 291.00,222.12 291.00,223.16 C291.00,223.62 295.27,224.00 300.50,224.00 L 298.95 224.00 C290.92,224.00 287.08,224.42 284.90,225.55 C278.10,229.07 258.57,236.34 244.71,240.52 C220.78,247.73 191.71,251.81 174.25,250.42 C167.38,249.87 166.00,250.01 166.00,251.23 C166.00,251.64 166.24,252.22 166.61,252.83 L 166.54 252.75 C164.25,250.25 162.03,248.93 159.36,248.49 C142.10,245.64 128.02,237.41 122.09,226.72 C118.92,220.98 119.18,211.04 122.69,204.00 C125.43,198.50 134.48,188.15 135.58,189.25 C135.92,189.59 134.97,192.91 133.48,196.65 C128.53,209.02 131.21,219.75 141.29,227.95 C146.35,232.07 147.91,232.84 147.02,230.49 L 148.77 231.95 C152.90,235.40 157.33,236.90 168.00,238.49 C179.63,240.21 188.61,240.24 201.00,238.57 ZM 304.03 121.20 C303.49,120.43 303.03,119.69 302.68,119.00 C300.36,114.54 297.98,112.67 293.13,111.73 C294.78,111.89 296.47,111.70 298.18,111.17 C305.14,109.00 320.22,107.71 331.31,108.33 C349.54,109.36 360.67,113.85 368.02,123.14 C372.08,128.28 372.42,129.65 372.04,139.50 C371.87,144.01 368.31,151.78 364.02,156.99 C360.39,161.42 359.41,160.50 361.43,154.56 C364.65,145.08 362.33,134.22 355.85,128.39 C347.60,120.96 334.31,117.39 318.50,118.35 C307.73,119.00 304.40,119.63 304.03,121.20 ZM 198.50 174.00 C197.63,176.74 196.00,176.52 196.00,173.67 C196.00,170.58 195.13,169.86 192.88,171.06 C191.21,171.96 191.12,171.80 192.01,169.46 C192.56,168.04 193.00,166.74 193.00,166.57 C193.00,166.41 191.78,166.51 190.28,166.80 L 187.56 167.32 L 189.32 164.64 C191.03,162.02 191.02,161.94 188.79,161.03 L 186.50 160.10 L 188.75 159.43 C191.54,158.61 191.67,156.99 189.00,156.29 C186.25,155.57 186.48,154.00 189.33,154.00 C192.65,154.00 193.23,153.00 191.48,150.33 C189.67,147.56 190.17,147.41 193.66,149.70 L 196.24 151.39 L 195.50 147.95 C194.77,144.58 194.80,144.54 196.70,146.25 C199.32,148.60 200.72,148.45 201.59,145.75 C202.26,143.64 202.38,143.71 203.44,146.86 L 204.58 150.21 L 205.93 147.36 L 207.28 144.50 L 208.17 147.75 L 209.06 151.01 L 211.73 149.26 C211.91,149.14 212.09,149.02 212.25,148.92 C213.20,148.29 213.75,147.92 213.92,148.06 C214.15,148.23 213.72,149.29 212.71,151.75 C212.58,152.06 212.44,152.39 212.30,152.75 C211.92,153.66 212.68,153.83 215.14,153.36 L 218.50 152.73 L 216.25 154.91 C213.65,157.42 213.36,159.00 215.50,159.00 C217.47,159.00 217.40,159.99 215.32,161.51 C213.79,162.63 213.86,162.86 216.07,164.08 L 218.50 165.42 L 215.50 166.00 C213.14,166.45 212.55,167.05 212.74,168.79 C213.01,171.27 212.05,171.61 210.08,169.75 C208.99,168.72 208.88,169.18 209.45,172.38 L 210.14 176.25 L 207.38 174.08 L 204.62 171.91 L 202.24 176.35 L 201.55 174.17 C200.69,171.46 199.33,171.38 198.50,174.00 ZM 145.53 226.68 C145.08,224.61 145.07,221.77 145.40,216.70 C145.54,214.62 145.67,212.49 145.77,210.60 C145.71,212.79 145.67,215.51 145.63,218.86 ZM 317.60 132.99 C318.76,133.00 320.10,133.35 321.56,134.02 C320.10,133.35 318.76,133.00 317.60,133.00 C316.34,133.00 313.93,131.42 311.38,129.19 C314.02,131.30 316.60,132.99 317.60,132.99 ZM 356.64 171.07 C356.42,170.34 355.74,169.58 354.54,168.70 C355.72,169.51 356.51,170.16 356.63,170.49 C356.69,170.63 356.69,170.83 356.64,171.07 ZM 178.67 204.33 C178.73,204.40 179.70,204.46 181.44,204.52 L 178.50 204.50 L 178.46 203.92 C178.53,204.12 178.60,204.26 178.67,204.33 ZM 146.04 205.08 C146.04,204.97 146.04,204.87 146.04,204.78 C146.07,203.29 146.52,201.80 147.04,201.47 C147.57,201.15 148.00,198.66 148.00,195.94 C148.00,198.66 147.59,201.13 147.10,201.44 C146.57,201.76 146.25,202.62 146.04,205.08 ZM 178.67 223.33 C178.73,223.40 179.38,223.46 180.54,223.53 L 178.50 223.50 L 178.46 222.92 C178.53,223.12 178.60,223.26 178.67,223.33 ZM 169.90 255.70 C170.82,255.96 171.90,255.79 173.75,255.28 C176.46,254.54 181.08,254.14 185.37,254.12 C181.06,254.14 176.42,254.55 173.67,255.31 C171.82,255.82 170.83,256.04 169.90,255.70 ZM 177.89 195.00 L 178.00 195.00 L 178.00 196.71 ZM 178.00 214.00 L 178.00 215.71 L 177.89 214.00 Z" fill="rgb(238,178,53)"/>
<path d="M 0.00 196.00 L 0.00 0.00 L 245.50 0.00 L 491.00 0.00 L 491.00 196.00 L 491.00 392.00 L 245.50 392.00 L 0.00 392.00 L 0.00 196.00 ZM 30.60 342.15 C36.24,338.02 37.73,336.04 39.12,330.82 C40.63,325.19 39.33,319.73 35.35,315.01 C31.65,310.61 27.92,309.00 21.39,309.00 C7.21,309.00 -1.02,322.07 5.14,334.80 C9.83,344.49 22.43,348.12 30.60,342.15 ZM 71.74 343.75 C72.29,343.06 73.67,340.02 74.81,337.00 C75.96,333.98 78.72,326.78 80.95,321.00 C83.18,315.23 85.00,310.17 85.00,309.75 C85.00,309.34 83.09,309.01 80.75,309.01 L 76.50 309.02 L 72.06 320.11 C66.91,332.96 67.04,332.97 61.95,318.86 C60.16,313.89 58.13,309.60 57.45,309.34 C56.77,309.08 54.62,309.01 52.67,309.18 L 49.13 309.50 L 55.51 325.88 C59.01,334.89 62.12,342.87 62.41,343.63 C63.08,345.37 70.39,345.47 71.74,343.75 ZM 106.75 338.00 C107.07,329.36 107.90,324.82 109.01,325.51 C109.52,325.82 112.45,330.35 115.53,335.59 L 121.13 345.10 L 125.81 344.80 L 130.50 344.50 L 130.77 326.75 L 131.05 309.00 L 127.02 309.00 L 123.00 309.00 L 123.00 318.44 C123.00,323.63 122.60,328.13 122.10,328.44 C121.61,328.74 118.64,324.49 115.50,319.00 L 109.79 309.00 L 104.39 309.00 L 99.00 309.00 L 99.00 326.33 C99.00,335.87 99.32,343.99 99.71,344.38 C100.11,344.77 101.79,344.96 103.46,344.80 C106.47,344.50 106.50,344.45 106.75,338.00 ZM 152.77 326.75 L 153.05 309.00 L 148.52 309.00 L 144.00 309.00 L 144.00 326.33 C144.00,335.87 144.32,343.99 144.71,344.38 C145.11,344.77 147.02,344.96 148.96,344.80 L 152.50 344.50 L 152.77 326.75 ZM 208.01 342.75 C214.73,338.17 215.47,336.23 215.83,321.93 L 216.16 309.00 L 212.08 309.00 L 208.00 309.00 L 208.00 319.57 C208.00,325.68 207.51,331.05 206.84,332.32 C204.18,337.30 199.91,338.29 195.63,334.93 C193.05,332.90 193.00,332.62 193.00,320.93 L 193.00 309.00 L 188.50 309.00 L 184.00 309.00 L 184.00 319.88 C184.00,327.02 184.49,331.92 185.42,334.13 C186.86,337.55 190.86,341.83 194.50,343.84 C197.93,345.73 204.40,345.21 208.01,342.75 ZM 237.80 338.75 C238.21,330.80 240.56,330.87 245.50,339.00 C249.07,344.88 249.23,345.00 253.57,345.00 C256.22,345.00 258.00,344.54 258.00,343.86 C258.00,343.23 256.65,340.53 255.00,337.85 C253.35,335.16 252.00,332.70 252.00,332.37 C252.00,332.04 253.35,330.23 255.00,328.35 C259.87,322.80 258.83,314.71 252.77,310.99 C249.97,309.26 248.07,309.01 239.50,309.24 L 229.50 309.50 L 229.22 325.96 C229.07,335.02 229.18,343.03 229.47,343.77 C229.81,344.66 231.28,345.01 233.74,344.81 L 237.50 344.50 L 237.80 338.75 ZM 296.08 342.73 C297.93,341.48 300.48,338.93 301.73,337.08 C303.79,334.02 304.00,332.54 304.00,321.35 L 304.00 309.00 L 300.08 309.00 L 296.17 309.00 L 295.83 321.09 C295.52,332.39 295.35,333.31 293.14,335.09 C289.93,337.69 286.40,337.49 283.45,334.55 C281.13,332.22 281.00,331.47 281.00,320.55 L 281.00 309.00 L 276.50 309.00 L 272.00 309.00 L 272.00 319.53 C272.00,330.35 273.20,335.31 276.79,339.36 C282.03,345.27 290.19,346.69 296.08,342.73 ZM 342.60 343.96 C344.48,343.25 345.65,343.25 346.36,343.96 C346.93,344.53 348.85,345.00 350.63,345.00 L 353.86 345.00 L 354.18 335.50 L 354.50 326.00 L 345.75 326.00 L 337.00 326.00 L 337.00 329.50 C337.00,332.57 337.31,333.00 339.50,333.00 C342.81,333.00 342.69,334.79 339.29,336.08 C335.81,337.40 332.44,336.54 329.45,333.55 C324.62,328.71 325.51,321.34 331.30,318.35 C334.81,316.53 340.34,317.09 343.03,319.53 C344.67,321.01 345.07,321.01 347.91,319.55 C351.94,317.46 351.81,315.72 347.38,312.34 C340.75,307.29 329.34,307.99 322.65,313.87 C317.89,318.05 316.17,328.58 319.28,334.55 C323.61,342.88 334.20,347.16 342.60,343.96 ZM 389.80 343.59 C393.85,341.47 397.92,336.77 399.02,332.93 C399.56,331.05 400.00,324.90 400.00,319.26 L 400.00 309.00 L 395.50 309.00 L 391.00 309.00 L 391.00 320.93 C391.00,332.62 390.95,332.90 388.37,334.93 C384.78,337.75 382.38,337.53 378.92,334.08 C376.04,331.20 376.00,330.99 376.00,320.08 L 376.00 309.00 L 371.92 309.00 L 367.84 309.00 L 368.17 321.93 C368.46,333.17 368.77,335.23 370.59,337.68 C375.56,344.38 383.57,346.84 389.80,343.59 ZM 423.36 341.25 L 424.29 338.00 L 431.50 338.00 L 438.71 338.00 L 439.64 341.25 C440.47,344.18 440.98,344.53 444.78,344.81 C448.31,345.06 448.99,344.82 448.95,343.31 C448.92,342.31 446.11,334.30 442.70,325.50 L 436.50 309.50 L 431.56 309.50 L 426.62 309.50 L 420.36 325.50 C416.92,334.30 414.08,342.31 414.05,343.31 C414.01,344.82 414.69,345.06 418.22,344.81 C422.02,344.53 422.53,344.18 423.36,341.25 ZM 475.00 337.50 C475.45,331.18 476.07,329.53 481.39,320.50 C484.63,315.00 487.48,310.13 487.74,309.69 C487.99,309.24 486.25,309.02 483.87,309.19 C479.76,309.48 479.35,309.80 475.95,315.44 C473.98,318.71 471.94,321.51 471.43,321.67 C470.92,321.83 468.79,319.04 466.71,315.48 C463.06,309.24 462.78,309.00 458.96,309.00 C456.78,309.00 455.00,309.25 455.00,309.55 C455.00,309.85 457.70,314.66 461.00,320.24 C466.71,329.90 467.00,330.71 467.00,337.03 C467.00,340.68 467.32,343.99 467.71,344.38 C468.11,344.77 469.79,344.96 471.46,344.80 C474.47,344.50 474.50,344.44 475.00,337.50 ZM 301.50 271.70 C307.27,268.67 309.53,266.94 309.60,265.50 C309.80,261.67 310.01,261.00 311.00,261.00 C311.55,261.00 312.00,261.87 312.00,262.94 C312.00,266.58 314.09,266.18 318.30,261.73 C320.61,259.28 324.37,256.06 326.65,254.57 C329.78,252.53 330.96,251.01 331.45,248.41 C331.83,246.41 333.91,242.92 336.40,240.12 C339.24,236.92 341.11,233.62 341.91,230.39 C342.58,227.70 343.84,224.41 344.70,223.08 C346.18,220.79 346.13,220.57 343.63,218.75 C341.02,216.85 341.00,216.72 341.00,203.84 L 341.00 190.86 L 345.44 186.18 C352.03,179.23 357.21,171.98 356.63,170.49 C356.36,169.77 352.92,167.49 348.99,165.43 C340.74,161.09 337.97,157.84 335.44,149.50 C334.10,145.09 332.54,142.50 329.56,139.72 C324.94,135.41 320.65,133.00 317.60,132.99 C315.24,132.99 304.00,123.49 304.00,121.51 C304.00,119.71 307.05,119.04 318.50,118.35 C334.31,117.39 347.60,120.96 355.85,128.39 C362.33,134.22 364.65,145.08 361.43,154.56 C359.41,160.50 360.39,161.42 364.02,156.99 C368.31,151.78 371.87,144.01 372.04,139.50 C372.42,129.65 372.08,128.28 368.02,123.14 C360.67,113.85 349.54,109.36 331.31,108.33 C320.22,107.71 305.14,109.00 298.18,111.17 C293.51,112.62 289.04,111.50 285.20,107.90 C282.86,105.70 281.27,104.97 279.70,105.35 C276.63,106.12 273.98,103.71 268.71,95.41 C262.65,85.85 256.06,80.85 255.97,85.75 C255.91,88.65 247.47,95.19 244.25,94.82 C241.54,94.50 241.50,94.41 241.79,88.21 C242.07,82.27 241.89,81.69 238.56,77.80 C236.62,75.53 229.41,68.35 222.53,61.84 L 210.04 50.00 L 204.19 50.00 C198.53,50.00 198.25,50.12 195.88,53.75 C193.44,57.48 193.40,57.50 186.99,57.31 C182.49,57.18 180.22,56.65 179.42,55.56 C177.82,53.37 177.00,53.62 177.00,56.29 C177.00,57.71 175.11,60.44 172.00,63.50 C166.57,68.85 166.24,69.95 168.50,75.35 C170.75,80.74 170.49,86.06 167.94,86.73 C166.48,87.11 166.10,87.73 166.62,88.88 C168.36,92.70 166.12,103.06 162.37,108.60 C160.00,112.08 159.96,112.40 161.45,115.53 C162.30,117.33 163.00,119.29 163.00,119.88 C163.00,122.70 159.65,128.84 157.59,129.78 C155.42,130.77 155.31,131.26 155.71,138.66 C155.94,142.97 156.64,147.54 157.27,148.80 C158.17,150.66 158.04,151.78 156.56,154.52 C155.11,157.22 154.88,158.95 155.47,162.72 C155.89,165.35 156.55,169.65 156.94,172.27 C157.33,174.90 158.18,177.58 158.82,178.22 C160.42,179.82 160.30,183.51 158.54,186.93 C156.90,190.09 155.20,191.00 150.92,191.00 C148.09,191.00 148.00,191.15 148.00,195.94 C148.00,198.66 147.57,201.15 147.04,201.47 C146.52,201.80 146.07,203.29 146.04,204.78 C146.02,206.28 145.73,211.64 145.40,216.70 C144.94,223.86 145.14,226.58 146.33,228.95 C148.35,233.02 147.25,232.80 141.29,227.95 C131.21,219.75 128.53,209.02 133.48,196.65 C134.97,192.91 135.92,189.59 135.58,189.25 C134.48,188.15 125.43,198.50 122.69,204.00 C119.18,211.04 118.92,220.98 122.09,226.72 C128.02,237.41 142.10,245.64 159.36,248.49 C162.03,248.93 164.25,250.25 166.54,252.75 C169.72,256.22 170.00,256.32 173.67,255.31 C178.91,253.86 191.06,253.69 194.54,255.01 C196.11,255.61 200.12,258.46 203.45,261.35 C209.30,266.43 216.20,269.42 224.00,270.24 C225.66,270.41 226.41,271.04 226.24,272.12 C225.76,275.07 230.08,277.16 236.73,277.20 C237.96,277.21 241.11,275.77 243.73,274.01 C248.49,270.81 248.52,270.81 257.98,271.44 C266.26,271.99 267.80,272.39 270.08,274.57 C272.28,276.68 273.30,276.98 276.61,276.45 C279.77,275.94 280.88,276.21 282.34,277.82 C284.15,279.82 284.17,279.82 288.83,277.86 C291.40,276.78 297.10,274.01 301.50,271.70 ZM 311.04 93.96 L 314.30 90.92 L 311.40 87.71 C309.80,85.95 308.45,84.38 308.38,84.22 C308.32,84.06 306.74,85.45 304.88,87.31 L 301.50 90.69 L 304.50 93.70 C306.15,95.35 307.56,96.77 307.64,96.85 C307.72,96.93 309.25,95.63 311.04,93.96 ZM 276.88 73.48 C278.02,71.54 280.56,69.01 282.52,67.86 L 286.08 65.76 L 282.01 62.28 C279.78,60.36 277.23,57.42 276.36,55.73 C274.89,52.88 274.70,52.80 273.76,54.58 C272.16,57.60 265.73,64.00 264.30,64.00 C262.12,64.00 262.91,65.40 266.29,67.52 C268.05,68.63 270.59,71.22 271.92,73.27 C273.25,75.32 274.44,77.00 274.57,77.00 C274.70,77.00 275.74,75.42 276.88,73.48 ZM 320.25 58.81 L 318.05 56.60 L 315.56 58.95 L 313.07 61.29 L 315.28 63.61 L 317.50 65.92 L 319.97 63.46 L 322.45 61.01 L 320.25 58.81 ZM 17.50 335.84 C13.90,333.86 12.05,330.64 12.02,326.34 C11.98,317.88 22.02,313.87 28.08,319.92 C32.30,324.15 32.13,329.07 27.60,333.60 C24.07,337.13 21.06,337.79 17.50,335.84 ZM 238.67 325.33 C238.30,324.97 238.00,322.92 238.00,320.78 L 238.00 316.90 L 243.75 317.20 C249.14,317.48 249.52,317.67 249.81,320.15 C250.02,322.01 249.43,323.29 247.83,324.40 C245.55,326.01 239.91,326.58 238.67,325.33 ZM 428.57 330.11 C428.01,329.20 430.62,322.00 431.51,322.00 C432.77,322.00 434.66,328.58 433.74,329.75 C432.60,331.20 429.38,331.42 428.57,330.11 ZM 178.67 223.33 C178.30,222.97 178.00,220.72 178.00,218.33 L 178.00 214.00 L 230.00 214.00 C258.60,214.00 282.00,214.19 282.00,214.43 C282.00,215.21 270.89,219.95 264.29,221.99 C258.25,223.86 255.02,224.00 218.56,224.00 C196.99,224.00 179.03,223.70 178.67,223.33 ZM 291.00 223.16 C291.00,222.12 306.54,214.00 308.54,214.00 C309.63,214.00 310.00,215.28 310.00,219.00 L 310.00 224.00 L 300.50 224.00 C295.27,224.00 291.00,223.62 291.00,223.16 ZM 178.67 204.33 C178.30,203.97 178.00,201.72 178.00,199.33 L 178.00 195.00 L 244.00 195.00 L 310.00 195.00 L 310.00 198.39 C310.00,201.25 309.48,202.02 306.60,203.39 C303.58,204.82 296.19,205.00 241.27,205.00 C207.20,205.00 179.03,204.70 178.67,204.33 ZM 178.00 160.50 L 178.00 136.00 L 244.06 136.00 L 310.11 136.00 L 309.81 140.25 L 309.50 144.50 L 268.00 145.00 L 226.50 145.50 L 226.19 149.32 C225.62,156.19 223.85,155.91 268.31,155.98 C290.38,156.01 308.82,156.42 309.29,156.89 C309.76,157.36 309.99,159.48 309.82,161.62 L 309.50 165.50 L 268.19 165.76 L 226.89 166.02 L 227.19 170.26 L 227.50 174.50 L 268.75 174.76 L 310.00 175.02 L 310.00 180.01 L 310.00 185.00 L 244.00 185.00 L 178.00 185.00 L 178.00 160.50 ZM 198.50 174.00 C199.33,171.38 200.69,171.46 201.55,174.17 L 202.24 176.35 L 203.43 174.13 L 204.62 171.91 L 207.38 174.08 L 210.14 176.25 L 209.45 172.38 C208.88,169.18 208.99,168.72 210.08,169.75 C212.05,171.61 213.01,171.27 212.74,168.79 C212.55,167.05 213.14,166.45 215.50,166.00 L 218.50 165.42 L 216.07 164.08 C213.86,162.86 213.79,162.63 215.32,161.51 C217.40,159.99 217.47,159.00 215.50,159.00 C213.36,159.00 213.65,157.42 216.25,154.91 L 218.50 152.73 L 215.14 153.36 C212.68,153.83 211.92,153.66 212.30,152.75 C214.61,147.10 214.65,147.34 211.73,149.26 L 209.06 151.01 L 208.17 147.75 L 207.28 144.50 L 205.93 147.36 L 204.58 150.21 L 203.44 146.86 C202.38,143.71 202.26,143.64 201.59,145.75 C200.72,148.45 199.32,148.60 196.70,146.25 C194.80,144.54 194.77,144.58 195.50,147.95 L 196.24 151.39 L 193.66 149.70 C190.17,147.41 189.67,147.56 191.48,150.33 C193.23,153.00 192.65,154.00 189.33,154.00 C186.48,154.00 186.25,155.57 189.00,156.29 C191.67,156.99 191.54,158.61 188.75,159.43 L 186.50 160.10 L 188.79 161.03 C191.02,161.94 191.03,162.02 189.32,164.64 L 187.56 167.32 L 190.28 166.80 C191.78,166.51 193.00,166.41 193.00,166.57 C193.00,166.74 192.56,168.04 192.01,169.46 C191.12,171.80 191.21,171.96 192.88,171.06 C195.13,169.86 196.00,170.58 196.00,173.67 C196.00,176.52 197.63,176.74 198.50,174.00 Z" fill="rgb(250,250,245)"/>
</g>
</svg>