<svg xmlns="http://www.w3.org/2000/svg" width="491" height="392" viewBox="0 0 491 392">
<g>
<path d="M 205.22 237.98 C189.68,240.26 179.11,240.40 167.50,238.48 C147.68,235.21 144.11,231.48 145.40,215.39 C145.75,211.05 146.05,206.28 146.06,204.78 C146.07,203.29 146.52,201.80 147.04,201.47 C147.57,201.15 148.00,198.66 148.00,195.94 C148.00,191.02 148.02,191.00 151.28,191.00 C153.08,191.00 155.54,190.31 156.74,189.47 C159.53,187.52 160.77,181.44 158.95,178.59 C158.22,177.44 157.27,174.25 156.84,171.50 C154.70,157.67 154.70,157.32 156.57,154.16 C158.02,151.70 158.16,150.63 157.27,148.79 C156.65,147.53 155.93,142.99 155.65,138.70 C155.17,131.22 155.25,130.84 157.52,129.81 C159.63,128.85 163.00,122.74 163.00,119.88 C163.00,119.29 162.30,117.33 161.45,115.53 C159.96,112.40 160.00,112.08 162.42,108.52 C163.81,106.48 165.22,103.16 165.55,101.15 C165.87,99.14 166.59,96.58 167.13,95.46 C167.78,94.10 167.76,92.50 167.06,90.65 C166.99,90.47 166.93,90.31 166.87,90.15 C166.24,88.51 165.97,87.81 166.21,87.42 C166.41,87.09 166.98,86.98 168.00,86.71 C170.49,86.06 170.73,80.68 168.50,75.35 C166.28,70.04 166.53,69.19 172.00,63.41 C174.75,60.50 177.00,57.19 177.00,56.06 C177.00,53.62 177.86,53.42 179.39,55.52 C180.09,56.47 182.96,57.26 187.18,57.65 L 193.85 58.28 L 195.68 54.39 C197.49,50.55 197.58,50.50 203.72,50.20 L 209.94 49.91 L 222.48 61.79 C229.38,68.33 236.62,75.53 238.56,77.80 C241.89,81.69 242.07,82.27 241.79,88.21 L 241.50 94.50 L 244.62 94.80 C247.03,95.04 248.27,94.46 250.14,92.25 C251.46,90.68 253.32,89.09 254.27,88.73 C255.22,88.36 256.00,87.15 256.00,86.03 C256.00,80.88 263.10,86.08 268.65,95.31 C273.27,102.98 276.68,106.12 279.58,105.39 C281.05,105.02 282.65,105.71 284.62,107.54 C288.02,110.71 291.04,112.00 295.06,112.00 C297.34,112.00 298.65,112.91 300.99,116.15 C302.65,118.43 304.00,120.86 304.00,121.55 C304.00,123.58 315.54,132.99 318.14,133.07 C319.44,133.11 321.64,133.90 323.04,134.82 C324.43,135.75 326.97,137.38 328.69,138.46 C331.60,140.30 334.49,145.65 336.54,153.00 C337.84,157.68 341.84,161.67 348.99,165.43 C352.92,167.49 356.38,169.84 356.69,170.64 C357.26,172.13 353.44,177.00 351.70,177.00 C351.17,177.00 347.54,179.18 343.62,181.85 C332.98,189.09 312.93,201.00 311.37,201.00 C310.51,201.00 310.00,199.87 310.00,198.00 L 310.00 195.00 L 177.89 195.00 L 178.50 204.50 L 303.36 205.50 L 285.47 214.00 L 177.89 214.00 L 178.50 223.50 L 218.00 224.00 C239.73,224.27 257.05,224.78 256.50,225.12 C251.79,228.02 221.76,235.55 205.22,237.98 ZM 299.50 272.60 C285.13,279.94 284.78,280.05 282.04,277.83 C280.32,276.44 278.86,276.12 276.30,276.60 C273.46,277.14 272.40,276.80 270.17,274.66 C267.78,272.38 266.35,272.00 257.98,271.43 C248.81,270.81 248.37,270.87 244.57,273.49 C239.07,277.26 236.05,278.29 234.42,276.94 C233.69,276.33 232.60,276.13 232.00,276.50 C230.40,277.49 225.74,274.12 226.39,272.44 C226.75,271.49 226.03,270.84 224.21,270.46 C213.84,268.34 209.52,266.39 202.91,260.86 C198.85,257.46 194.69,254.86 192.77,254.51 C188.94,253.82 175.51,254.49 172.22,255.53 C170.65,256.03 169.32,255.69 167.97,254.47 C163.98,250.86 165.36,250.47 182.75,250.31 C212.97,250.03 246.85,242.27 278.47,228.38 C288.23,224.09 288.68,224.00 299.22,224.00 L 310.00 224.00 L 310.03 212.50 L 319.24 206.50 C324.30,203.20 331.02,198.36 334.18,195.75 C337.33,193.14 340.16,191.00 340.46,191.00 C340.76,191.00 341.00,196.72 341.00,203.71 C341.00,216.22 341.04,216.46 343.61,218.51 L 346.22 220.59 L 344.11 224.04 C342.96,225.94 342.01,228.54 342.00,229.82 C342.00,232.93 340.45,235.70 335.92,240.66 C333.75,243.04 331.84,246.33 331.46,248.34 C330.96,251.02 329.81,252.51 326.65,254.57 C324.37,256.06 320.61,259.28 318.30,261.73 C314.09,266.18 312.00,266.58 312.00,262.94 C312.00,261.87 311.55,261.00 311.00,261.00 C310.01,261.00 309.80,261.67 309.60,265.50 C309.53,266.99 306.94,268.80 299.50,272.60 ZM 178.00 136.00 L 178.00 185.00 L 310.00 185.00 L 310.00 175.02 L 227.50 174.50 L 227.19 170.26 L 226.89 166.02 L 268.19 165.76 L 309.50 165.50 L 309.80 160.75 L 310.11 156.00 L 286.80 155.83 C239.48,155.50 229.26,155.28 228.14,154.59 C227.51,154.20 227.00,152.11 227.00,149.95 L 227.00 146.02 L 309.50 145.50 L 309.80 140.75 L 310.11 136.00 ZM 28.28 343.62 C20.72,346.86 11.30,343.93 6.35,336.78 C2.44,331.14 2.27,322.14 5.98,316.73 C9.44,311.68 14.62,309.00 20.92,309.00 C30.21,309.00 36.60,313.61 39.16,322.13 C41.52,330.03 36.41,340.13 28.28,343.62 ZM 237.80 338.75 L 237.50 344.50 L 233.96 344.80 C232.02,344.96 230.11,344.77 229.71,344.38 C229.32,343.99 229.00,335.87 229.00,326.33 L 229.00 309.00 L 238.53 309.00 C253.00,309.00 258.00,312.00 258.00,320.69 C258.00,323.98 257.33,325.70 255.00,328.35 C253.35,330.23 252.00,332.04 252.00,332.37 C252.00,332.70 253.35,335.16 255.00,337.85 C256.65,340.53 258.00,343.23 258.00,343.86 C258.00,344.54 256.24,345.00 253.64,345.00 C249.39,345.00 249.19,344.85 245.58,339.00 C240.56,330.87 238.21,330.80 237.80,338.75 ZM 107.00 335.00 L 107.00 345.00 L 103.67 345.00 C101.83,345.00 100.03,344.70 99.67,344.33 C99.30,343.97 99.00,335.87 99.00,326.33 L 99.00 309.00 L 109.79 309.00 L 115.50 319.00 C118.64,324.49 121.61,328.74 122.10,328.44 C122.60,328.13 123.00,323.63 123.00,318.44 L 123.00 309.00 L 131.05 309.00 L 130.50 344.50 L 125.86 344.80 L 121.21 345.10 L 115.36 335.08 C112.13,329.56 108.94,325.04 108.25,325.03 C107.33,325.01 107.00,327.65 107.00,335.00 ZM 342.60 343.96 C333.06,347.59 321.51,341.81 318.58,331.96 C316.01,323.31 318.95,315.69 326.59,311.21 C332.29,307.87 342.22,308.40 347.36,312.33 C351.80,315.71 351.91,317.03 347.93,319.38 C345.13,321.04 344.72,321.06 343.12,319.61 C338.65,315.57 330.13,316.92 327.45,322.09 C325.34,326.18 325.66,329.45 328.53,332.85 C331.44,336.32 335.50,337.52 339.33,336.07 C342.70,334.79 342.80,333.00 339.50,333.00 C337.31,333.00 337.00,332.57 337.00,329.50 L 337.00 326.00 L 354.00 326.00 L 354.00 345.00 L 350.70 345.00 C348.89,345.00 346.93,344.53 346.36,343.96 C345.65,343.25 344.48,343.25 342.60,343.96 ZM 423.36 341.25 C422.53,344.18 422.02,344.53 418.22,344.81 C414.97,345.04 414.00,344.76 414.00,343.59 C414.00,342.33 422.41,319.67 426.02,311.20 C426.88,309.18 427.60,308.93 431.74,309.20 L 436.47 309.50 L 442.68 325.50 C446.09,334.30 448.91,342.31 448.94,343.31 C448.99,344.82 448.31,345.06 444.78,344.81 C440.98,344.53 440.47,344.18 439.64,341.25 L 438.71 338.00 L 424.29 338.00 ZM 296.08 342.73 C288.11,348.10 276.53,343.24 273.14,333.10 C272.51,331.23 272.00,325.04 272.00,319.35 L 272.00 309.00 L 281.00 309.00 L 281.00 320.55 C281.00,331.47 281.13,332.22 283.45,334.55 C287.31,338.40 292.07,337.70 294.54,332.93 C295.55,330.97 296.00,326.85 296.00,319.55 L 296.00 309.00 L 304.00 309.00 L 304.00 321.35 C304.00,332.54 303.79,334.02 301.73,337.08 C300.48,338.93 297.93,341.48 296.08,342.73 ZM 394.05 340.45 C390.66,343.76 389.30,344.39 384.79,344.75 C380.44,345.10 378.89,344.76 376.09,342.84 C369.25,338.14 368.54,336.26 368.17,321.93 L 367.84 309.00 L 376.00 309.00 L 376.00 319.57 C376.00,325.68 376.49,331.05 377.16,332.32 C379.82,337.30 384.09,338.29 388.37,334.93 C390.95,332.90 391.00,332.62 391.00,320.93 L 391.00 309.00 L 400.00 309.00 L 399.99 319.25 C399.99,332.13 399.02,335.60 394.05,340.45 ZM 208.01 342.75 C204.40,345.21 197.93,345.73 194.50,343.84 C190.86,341.83 186.86,337.55 185.42,334.13 C184.49,331.92 184.00,327.02 184.00,319.88 L 184.00 309.00 L 193.00 309.00 L 193.00 320.93 C193.00,332.62 193.05,332.90 195.63,334.93 C199.91,338.29 204.18,337.30 206.84,332.32 C207.51,331.05 208.00,325.68 208.00,319.57 L 208.00 309.00 L 216.16 309.00 L 215.83 321.93 C215.47,336.23 214.73,338.17 208.01,342.75 ZM 71.73 343.75 C71.20,344.44 69.00,345.00 66.85,345.00 C63.73,345.00 62.78,344.55 62.08,342.75 C61.60,341.51 59.40,335.77 57.20,330.00 C54.99,324.23 52.24,317.11 51.08,314.19 L 48.99 308.89 L 53.70 309.19 L 58.42 309.50 L 62.17 319.41 C64.23,324.86 66.32,329.72 66.82,330.22 C67.34,330.74 69.50,326.57 72.07,320.06 L 76.43 309.00 L 80.71 309.00 C83.07,309.00 85.00,309.34 85.00,309.75 C84.99,310.46 83.51,314.46 75.99,334.00 C74.19,338.67 72.27,343.06 71.73,343.75 ZM 475.00 337.50 C474.50,344.44 474.47,344.50 471.46,344.80 C469.79,344.96 468.11,344.77 467.71,344.38 C467.32,343.99 467.00,340.61 467.00,336.88 C467.00,330.36 466.77,329.71 461.00,320.16 C457.70,314.70 455.00,309.95 455.00,309.61 C455.00,309.28 456.78,309.00 458.96,309.00 C462.78,309.00 463.06,309.24 466.71,315.48 C468.79,319.04 470.92,321.83 471.43,321.67 C471.94,321.51 473.98,318.71 475.95,315.44 C479.35,309.80 479.76,309.48 483.87,309.19 C486.25,309.02 487.99,309.24 487.74,309.69 C487.48,310.13 484.63,315.00 481.39,320.50 C476.07,329.53 475.45,331.18 475.00,337.50 ZM 153.05 309.00 L 152.50 344.50 L 148.96 344.80 C147.02,344.96 145.11,344.77 144.71,344.38 C144.32,343.99 144.00,335.87 144.00,326.33 L 144.00 309.00 ZM 17.50 335.84 C21.06,337.79 24.07,337.13 27.60,333.60 C30.34,330.86 31.00,329.42 31.00,326.19 C31.00,322.94 30.42,321.69 27.92,319.59 C25.95,317.93 23.64,317.00 21.50,317.00 C19.36,317.00 17.05,317.93 15.08,319.59 C12.54,321.72 12.00,322.91 12.02,326.34 C12.05,330.64 13.90,333.86 17.50,335.84 ZM 276.88 73.48 C275.74,75.42 274.70,77.00 274.57,77.00 C274.44,77.00 273.25,75.32 271.92,73.27 C270.59,71.22 268.05,68.63 266.29,67.52 C262.93,65.41 262.13,64.02 264.25,63.96 C266.16,63.91 270.56,59.89 272.81,56.13 L 274.82 52.76 L 276.34 55.63 C277.94,58.64 281.21,62.21 284.37,64.37 C286.13,65.57 286.01,65.80 282.60,67.81 C280.60,68.99 278.02,71.54 276.88,73.48 ZM 238.67 325.33 C239.91,326.58 245.55,326.01 247.83,324.40 C249.43,323.29 250.02,322.01 249.81,320.15 C249.52,317.67 249.14,317.48 243.75,317.20 L 238.00 316.90 L 238.00 320.78 C238.00,322.92 238.30,324.97 238.67,325.33 ZM 311.04 93.96 C309.25,95.63 307.72,96.93 307.64,96.85 C307.56,96.77 306.15,95.35 304.50,93.70 L 301.50 90.69 L 304.88 87.31 C306.74,85.45 308.32,84.06 308.38,84.22 C308.45,84.38 309.80,85.95 311.40,87.71 L 314.30 90.92 ZM 318.05 56.60 L 322.45 61.01 L 319.97 63.46 L 317.50 65.92 L 313.07 61.29 L 315.56 58.95 ZM 428.57 330.11 C428.87,330.60 430.19,331.00 431.50,331.00 C432.81,331.00 434.13,330.60 434.43,330.11 C434.99,329.21 432.38,322.00 431.50,322.00 C430.62,322.00 428.01,329.21 428.57,330.11 Z" fill="rgb(6,57,162)"/>
<path d="M 205.22 237.98 C221.76,235.55 251.79,228.02 256.50,225.12 C257.05,224.78 239.73,224.27 218.00,224.00 C218.14,224.00 218.27,224.00 218.41,224.00 L 218.62 224.00 L 257.90 224.00 L 265.70 221.47 C269.99,220.08 275.52,217.85 278.00,216.52 L 282.50 214.09 L 230.25 214.05 L 178.00 214.00 L 178.00 215.71 L 177.89 214.00 L 285.47 214.00 L 303.36 205.50 L 236.78 204.97 C238.31,204.97 239.86,204.97 241.42,204.97 C298.01,204.94 303.81,204.78 307.00,203.22 C309.37,202.06 310.14,201.43 310.25,199.90 C310.48,200.61 310.86,201.00 311.37,201.00 C312.93,201.00 332.98,189.09 343.62,181.85 C347.54,179.18 351.17,177.00 351.70,177.00 C352.49,177.00 353.72,175.99 354.76,174.75 C352.87,177.50 349.64,181.42 345.28,186.21 L 341.00 190.91 L 341.00 203.67 C341.00,196.70 340.75,191.00 340.46,191.00 C340.16,191.00 337.33,193.14 334.18,195.75 C331.02,198.36 324.30,203.20 319.24,206.50 L 310.03 212.50 L 310.00 224.00 L 310.00 219.00 C310.00,215.11 309.65,214.00 308.42,214.00 C306.48,214.00 291.03,222.21 291.01,223.25 C291.01,223.66 295.27,224.00 300.50,224.00 L 299.22 224.00 C288.68,224.00 288.23,224.09 278.47,228.38 C246.85,242.27 212.97,250.03 182.75,250.31 C169.93,250.43 165.81,250.67 166.13,252.23 C166.04,251.98 166.00,251.73 166.00,251.47 C166.00,250.81 163.86,249.72 161.25,249.06 C158.64,248.40 153.80,247.17 150.50,246.33 C142.48,244.28 132.16,238.78 127.76,234.21 C121.87,228.10 120.00,223.81 120.00,216.41 C120.00,208.25 123.28,201.02 130.34,193.63 C135.81,187.90 137.32,188.57 133.83,195.18 C132.00,198.63 131.53,201.11 131.52,207.50 C131.50,214.40 131.87,216.13 134.18,220.06 C136.58,224.15 145.09,232.00 147.11,232.00 C147.51,232.00 147.26,230.61 146.56,228.83 C149.02,234.19 155.06,236.43 167.50,238.48 C179.11,240.40 189.68,240.26 205.22,237.98 ZM 310.27 128.19 C306.99,125.53 304.00,122.59 304.00,121.55 C304.00,120.86 302.65,118.43 300.99,116.15 C298.65,112.91 297.34,112.00 295.06,112.00 C291.04,112.00 288.02,110.71 284.62,107.54 C284.49,107.41 284.36,107.30 284.23,107.19 C284.50,107.41 284.79,107.66 285.08,107.92 C289.04,111.54 293.79,112.67 298.85,111.19 C306.72,108.90 319.56,107.73 330.42,108.32 C341.94,108.95 348.38,110.30 356.01,113.69 C370.75,120.24 376.33,134.38 369.56,148.05 C366.63,153.96 361.39,160.73 360.46,159.80 C360.15,159.48 360.64,156.92 361.56,154.10 C365.36,142.48 361.77,132.09 351.59,125.24 C343.95,120.10 337.29,118.50 323.50,118.50 C310.09,118.50 304.00,119.42 304.00,121.45 C304.00,122.52 306.99,125.51 310.27,128.19 ZM 178.67 204.33 C178.73,204.40 179.72,204.46 181.50,204.52 L 178.50 204.50 L 178.46 203.92 C178.53,204.12 178.60,204.26 178.67,204.33 ZM 178.67 223.33 C178.73,223.40 179.39,223.46 180.54,223.53 L 178.50 223.50 L 178.46 222.92 C178.53,223.12 178.60,223.26 178.67,223.33 ZM 166.32 252.70 C166.61,253.18 167.19,253.77 167.97,254.47 C167.36,254.11 166.70,253.43 166.32,252.70 ZM 146.12 227.72 C145.55,226.17 145.26,224.52 145.20,222.20 C145.30,224.33 145.58,226.15 146.12,227.72 ZM 356.67 170.60 C356.27,169.76 352.86,167.46 348.99,165.43 C352.92,167.49 356.37,169.80 356.66,170.56 C356.67,170.57 356.67,170.58 356.67,170.60 ZM 177.89 195.00 L 178.00 195.00 L 178.00 196.71 ZM 310.00 195.00 L 310.00 196.31 L 309.87 195.00 ZM 145.85 209.13 C145.96,207.13 146.04,205.52 146.05,204.78 C146.07,203.43 146.44,202.08 146.90,201.59 C146.44,202.08 146.07,203.43 146.06,204.78 C146.05,205.54 145.97,207.16 145.85,209.13 Z" fill="rgb(241,176,44)"/>
<path d="M 0.00 196.00 L 0.00 0.00 L 245.50 0.00 L 491.00 0.00 L 491.00 196.00 L 491.00 392.00 L 245.50 392.00 L 0.00 392.00 L 0.00 196.00 ZM 28.28 343.62 C36.41,340.13 41.52,330.03 39.16,322.13 C36.60,313.61 30.21,309.00 20.92,309.00 C14.62,309.00 9.44,311.68 5.98,316.73 C2.27,322.14 2.44,331.14 6.35,336.78 C11.30,343.93 20.72,346.86 28.28,343.62 ZM 71.73 343.75 C72.27,343.06 74.19,338.67 75.99,334.00 C83.51,314.46 84.99,310.46 85.00,309.75 C85.00,309.34 83.07,309.00 80.71,309.00 L 76.43 309.00 L 72.07 320.06 C69.50,326.57 67.34,330.74 66.82,330.22 C66.32,329.72 64.23,324.86 62.17,319.41 L 58.42 309.50 L 53.70 309.19 L 48.99 308.89 L 51.08 314.19 C52.24,317.11 54.99,324.23 57.20,330.00 C59.40,335.77 61.60,341.51 62.08,342.75 C62.78,344.55 63.73,345.00 66.85,345.00 C69.00,345.00 71.20,344.44 71.73,343.75 ZM 107.00 335.00 C107.00,327.65 107.33,325.01 108.25,325.03 C108.94,325.04 112.13,329.56 115.36,335.08 L 121.21 345.10 L 125.86 344.80 L 130.50 344.50 L 130.77 326.75 L 131.05 309.00 L 127.02 309.00 L 123.00 309.00 L 123.00 318.44 C123.00,323.63 122.60,328.13 122.10,328.44 C121.61,328.74 118.64,324.49 115.50,319.00 L 109.79 309.00 L 104.39 309.00 L 99.00 309.00 L 99.00 326.33 C99.00,335.87 99.30,343.97 99.67,344.33 C100.03,344.70 101.83,345.00 103.67,345.00 L 107.00 345.00 L 107.00 335.00 ZM 152.77 326.75 L 153.05 309.00 L 148.52 309.00 L 144.00 309.00 L 144.00 326.33 C144.00,335.87 144.32,343.99 144.71,344.38 C145.11,344.77 147.02,344.96 148.96,344.80 L 152.50 344.50 L 152.77 326.75 ZM 208.01 342.75 C214.73,338.17 215.47,336.23 215.83,321.93 L 216.16 309.00 L 212.08 309.00 L 208.00 309.00 L 208.00 319.57 C208.00,325.68 207.51,331.05 206.84,332.32 C204.18,337.30 199.91,338.29 195.63,334.93 C193.05,332.90 193.00,332.62 193.00,320.93 L 193.00 309.00 L 188.50 309.00 L 184.00 309.00 L 184.00 319.88 C184.00,327.02 184.49,331.92 185.42,334.13 C186.86,337.55 190.86,341.83 194.50,343.84 C197.93,345.73 204.40,345.21 208.01,342.75 ZM 237.80 338.75 C238.21,330.80 240.56,330.87 245.58,339.00 C249.19,344.85 249.39,345.00 253.64,345.00 C256.24,345.00 258.00,344.54 258.00,343.86 C258.00,343.23 256.65,340.53 255.00,337.85 C253.35,335.16 252.00,332.70 252.00,332.37 C252.00,332.04 253.35,330.23 255.00,328.35 C257.33,325.70 258.00,323.98 258.00,320.69 C258.00,312.00 253.00,309.00 238.53,309.00 L 229.00 309.00 L 229.00 326.33 C229.00,335.87 229.32,343.99 229.71,344.38 C230.11,344.77 232.02,344.96 233.96,344.80 L 237.50 344.50 L 237.80 338.75 ZM 296.08 342.73 C297.93,341.48 300.48,338.93 301.73,337.08 C303.79,334.02 304.00,332.54 304.00,321.35 L 304.00 309.00 L 300.00 309.00 L 296.00 309.00 L 296.00 319.55 C296.00,326.85 295.55,330.97 294.54,332.93 C292.07,337.70 287.31,338.40 283.45,334.55 C281.13,332.22 281.00,331.47 281.00,320.55 L 281.00 309.00 L 276.50 309.00 L 272.00 309.00 L 272.00 319.35 C272.00,325.04 272.51,331.23 273.14,333.10 C276.53,343.24 288.11,348.10 296.08,342.73 ZM 342.60 343.96 C344.48,343.25 345.65,343.25 346.36,343.96 C346.93,344.53 348.89,345.00 350.70,345.00 L 354.00 345.00 L 354.00 335.50 L 354.00 326.00 L 345.50 326.00 L 337.00 326.00 L 337.00 329.50 C337.00,332.57 337.31,333.00 339.50,333.00 C342.80,333.00 342.70,334.79 339.33,336.07 C335.50,337.52 331.44,336.32 328.53,332.85 C325.66,329.45 325.34,326.18 327.45,322.09 C330.13,316.92 338.65,315.57 343.12,319.61 C344.72,321.06 345.13,321.04 347.93,319.38 C351.91,317.03 351.80,315.71 347.36,312.33 C342.22,308.40 332.29,307.87 326.59,311.21 C318.95,315.69 316.01,323.31 318.58,331.96 C321.51,341.81 333.06,347.59 342.60,343.96 ZM 394.05 340.45 C399.02,335.60 399.99,332.13 399.99,319.25 L 400.00 309.00 L 395.50 309.00 L 391.00 309.00 L 391.00 320.93 C391.00,332.62 390.95,332.90 388.37,334.93 C384.09,338.29 379.82,337.30 377.16,332.32 C376.49,331.05 376.00,325.68 376.00,319.57 L 376.00 309.00 L 371.92 309.00 L 367.84 309.00 L 368.17 321.93 C368.54,336.26 369.25,338.14 376.09,342.84 C378.89,344.76 380.44,345.10 384.79,344.75 C389.30,344.39 390.66,343.76 394.05,340.45 ZM 423.36 341.25 L 424.29 338.00 L 431.50 338.00 L 438.71 338.00 L 439.64 341.25 C440.47,344.18 440.98,344.53 444.78,344.81 C448.31,345.06 448.99,344.82 448.94,343.31 C448.91,342.31 446.09,334.30 442.68,325.50 L 436.47 309.50 L 431.74 309.20 C427.60,308.93 426.88,309.18 426.02,311.20 C422.41,319.67 414.00,342.33 414.00,343.59 C414.00,344.76 414.97,345.04 418.22,344.81 C422.02,344.53 422.53,344.18 423.36,341.25 ZM 475.00 337.50 C475.45,331.18 476.07,329.53 481.39,320.50 C484.63,315.00 487.48,310.13 487.74,309.69 C487.99,309.24 486.25,309.02 483.87,309.19 C479.76,309.48 479.35,309.80 475.95,315.44 C473.98,318.71 471.94,321.51 471.43,321.67 C470.92,321.83 468.79,319.04 466.71,315.48 C463.06,309.24 462.78,309.00 458.96,309.00 C456.78,309.00 455.00,309.28 455.00,309.61 C455.00,309.95 457.70,314.70 461.00,320.16 C466.77,329.71 467.00,330.36 467.00,336.88 C467.00,340.61 467.32,343.99 467.71,344.38 C468.11,344.77 469.79,344.96 471.46,344.80 C474.47,344.50 474.50,344.44 475.00,337.50 ZM 299.50 272.60 C306.94,268.80 309.53,266.99 309.60,265.50 C309.80,261.67 310.01,261.00 311.00,261.00 C311.55,261.00 312.00,261.87 312.00,262.94 C312.00,266.58 314.09,266.18 318.30,261.73 C320.61,259.28 324.37,256.06 326.65,254.57 C329.81,252.51 330.96,251.02 331.46,248.34 C331.84,246.33 333.75,243.04 335.92,240.66 C340.45,235.70 342.00,232.93 342.00,229.82 C342.01,228.54 342.96,225.94 344.11,224.04 L 346.22 220.59 L 343.61 218.51 C341.04,216.46 341.00,216.22 341.00,203.67 L 341.00 190.91 L 345.28 186.21 C353.02,177.70 357.20,171.96 356.66,170.56 C356.37,169.80 352.92,167.49 348.99,165.43 C341.84,161.67 337.84,157.68 336.54,153.00 C334.49,145.65 331.60,140.30 328.69,138.46 C326.97,137.38 324.43,135.75 323.04,134.82 C321.64,133.90 319.44,133.11 318.14,133.07 C315.47,132.99 304.00,123.56 304.00,121.45 C304.00,119.42 310.09,118.50 323.50,118.50 C337.29,118.50 343.95,120.10 351.59,125.24 C361.77,132.09 365.36,142.48 361.56,154.10 C360.64,156.92 360.15,159.48 360.46,159.80 C361.39,160.73 366.63,153.96 369.56,148.05 C376.33,134.38 370.75,120.24 356.01,113.69 C348.38,110.30 341.94,108.95 330.42,108.32 C319.56,107.73 306.72,108.90 298.85,111.19 C293.79,112.67 289.04,111.54 285.08,107.92 C282.74,105.79 281.06,105.02 279.57,105.39 C276.68,106.12 273.27,102.97 268.65,95.31 C263.10,86.08 256.00,80.88 256.00,86.03 C256.00,87.15 255.22,88.36 254.27,88.73 C253.32,89.09 251.46,90.68 250.14,92.25 C248.27,94.46 247.03,95.04 244.62,94.80 L 241.50 94.50 L 241.79 88.21 C242.07,82.27 241.89,81.69 238.56,77.80 C236.62,75.53 229.38,68.33 222.48,61.79 L 209.94 49.91 L 203.72 50.20 C197.58,50.50 197.49,50.55 195.68,54.39 L 193.85 58.28 L 187.18 57.65 C182.96,57.26 180.09,56.47 179.39,55.52 C177.86,53.42 177.00,53.62 177.00,56.06 C177.00,57.19 174.75,60.50 172.00,63.41 C166.53,69.19 166.28,70.04 168.50,75.35 C170.73,80.68 170.49,86.06 168.00,86.71 C165.66,87.32 165.71,87.11 167.06,90.65 C167.76,92.50 167.78,94.10 167.13,95.46 C166.59,96.58 165.87,99.14 165.55,101.15 C165.22,103.16 163.81,106.48 162.42,108.52 C160.00,112.08 159.96,112.40 161.45,115.53 C162.30,117.33 163.00,119.29 163.00,119.88 C163.00,122.74 159.63,128.85 157.52,129.81 C155.25,130.84 155.17,131.22 155.65,138.70 C155.93,142.99 156.65,147.53 157.27,148.79 C158.16,150.63 158.02,151.70 156.57,154.16 C154.70,157.32 154.70,157.67 156.84,171.50 C157.27,174.25 158.22,177.44 158.95,178.59 C160.77,181.44 159.53,187.52 156.74,189.47 C155.54,190.31 153.08,191.00 151.28,191.00 C148.02,191.00 148.00,191.02 148.00,195.94 C148.00,198.66 147.57,201.15 147.04,201.47 C146.52,201.80 146.07,203.29 146.05,204.78 C146.03,206.28 145.74,211.35 145.41,216.06 C144.95,222.58 145.18,225.49 146.35,228.31 C147.20,230.34 147.54,232.00 147.11,232.00 C145.09,232.00 136.58,224.15 134.18,220.06 C131.87,216.13 131.50,214.40 131.52,207.50 C131.53,201.11 132.00,198.63 133.83,195.18 C137.32,188.57 135.81,187.90 130.34,193.63 C123.28,201.02 120.00,208.25 120.00,216.41 C120.00,223.81 121.87,228.10 127.76,234.21 C132.16,238.78 142.48,244.28 150.50,246.33 C153.80,247.17 158.64,248.40 161.25,249.06 C163.86,249.72 166.00,250.81 166.00,251.47 C166.00,253.81 169.80,256.29 172.22,255.53 C175.51,254.49 188.94,253.82 192.77,254.51 C194.69,254.86 198.85,257.46 202.91,260.86 C209.52,266.39 213.84,268.34 224.21,270.46 C226.03,270.84 226.75,271.49 226.39,272.44 C225.74,274.12 230.40,277.49 232.00,276.50 C232.60,276.13 233.69,276.33 234.42,276.94 C236.05,278.29 239.07,277.26 244.57,273.49 C248.37,270.87 248.81,270.81 257.98,271.43 C266.35,272.00 267.78,272.38 270.17,274.66 C272.40,276.80 273.46,277.14 276.30,276.60 C278.86,276.12 280.32,276.44 282.04,277.83 C284.78,280.05 285.13,279.94 299.50,272.60 ZM 311.04 93.96 L 314.30 90.92 L 311.40 87.71 C309.80,85.95 308.45,84.38 308.38,84.22 C308.32,84.06 306.74,85.45 304.88,87.31 L 301.50 90.69 L 304.50 93.70 C306.15,95.35 307.56,96.77 307.64,96.85 C307.72,96.93 309.25,95.63 311.04,93.96 ZM 276.88 73.48 C278.02,71.54 280.60,68.99 282.60,67.81 C286.01,65.80 286.13,65.57 284.37,64.37 C281.21,62.21 277.94,58.64 276.34,55.63 L 274.82 52.76 L 272.81 56.13 C270.56,59.89 266.16,63.91 264.25,63.96 C262.13,64.02 262.93,65.41 266.29,67.52 C268.05,68.63 270.59,71.22 271.92,73.27 C273.25,75.32 274.44,77.00 274.57,77.00 C274.70,77.00 275.74,75.42 276.88,73.48 ZM 320.25 58.81 L 318.05 56.60 L 315.56 58.95 L 313.07 61.29 L 315.28 63.61 L 317.50 65.92 L 319.97 63.46 L 322.45 61.01 L 320.25 58.81 ZM 17.50 335.84 C13.90,333.86 12.05,330.64 12.02,326.34 C12.00,322.91 12.54,321.72 15.08,319.59 C17.05,317.93 19.36,317.00 21.50,317.00 C23.64,317.00 25.95,317.93 27.92,319.59 C30.42,321.69 31.00,322.94 31.00,326.19 C31.00,329.42 30.34,330.86 27.60,333.60 C24.07,337.13 21.06,337.79 17.50,335.84 ZM 238.67 325.33 C238.30,324.97 238.00,322.92 238.00,320.78 L 238.00 316.90 L 243.75 317.20 C249.14,317.48 249.52,317.67 249.81,320.15 C250.02,322.01 249.43,323.29 247.83,324.40 C245.55,326.01 239.91,326.58 238.67,325.33 ZM 428.57 330.11 C428.01,329.21 430.62,322.00 431.50,322.00 C432.38,322.00 434.99,329.21 434.43,330.11 C434.13,330.60 432.81,331.00 431.50,331.00 C430.19,331.00 428.87,330.60 428.57,330.11 ZM 178.67 223.33 C178.30,222.97 178.00,220.72 178.00,218.33 L 178.00 214.00 L 230.25 214.05 L 282.50 214.09 L 278.00 216.52 C275.52,217.85 269.99,220.08 265.70,221.47 L 257.90 224.00 L 218.62 224.00 C197.01,224.00 179.03,223.70 178.67,223.33 ZM 291.01 223.25 C291.03,222.21 306.48,214.00 308.42,214.00 C309.65,214.00 310.00,215.11 310.00,219.00 L 310.00 224.00 L 300.50 224.00 C295.27,224.00 291.01,223.66 291.01,223.25 ZM 178.67 204.33 C178.30,203.97 178.00,201.72 178.00,199.33 L 178.00 195.00 L 243.94 195.00 L 309.87 195.00 L 310.19 198.25 C310.46,201.10 310.07,201.71 307.00,203.22 C303.81,204.78 298.01,204.94 241.42,204.97 C207.27,204.98 179.03,204.70 178.67,204.33 ZM 178.00 160.50 L 178.00 136.00 L 244.05 136.00 L 310.11 136.00 L 309.80 140.75 L 309.50 145.50 L 268.25 145.76 L 227.00 146.02 L 227.00 149.95 C227.00,152.11 227.51,154.20 228.14,154.59 C229.26,155.28 239.48,155.50 286.80,155.83 L 310.11 156.00 L 309.80 160.75 L 309.50 165.50 L 268.19 165.76 L 226.89 166.02 L 227.19 170.26 L 227.50 174.50 L 268.75 174.76 L 310.00 175.02 L 310.00 180.01 L 310.00 185.00 L 244.00 185.00 L 178.00 185.00 L 178.00 160.50 Z" fill="rgb(253,254,254)"/>
</g>
</svg>